<mxfile host="app.diagrams.net" modified="2023-05-13T02:27:34.246Z" agent="Mozilla/5.0 (Windows NT 10.0; Win64; x64) AppleWebKit/537.36 (KHTML, like Gecko) Chrome/112.0.0.0 Safari/537.36 OPR/98.0.0.0" etag="u7eVGQUVWxl9gdOQNdXX" version="21.3.0" type="github">
  <diagram name="Página-1" id="lVVp2TQSh0Q2pHXrriCY">
    <mxGraphModel dx="579" dy="308" grid="1" gridSize="10" guides="1" tooltips="1" connect="1" arrows="1" fold="1" page="1" pageScale="1" pageWidth="827" pageHeight="1169" math="0" shadow="0">
      <root>
        <mxCell id="0" />
        <mxCell id="1" parent="0" />
        <mxCell id="K4RC7GFQoaODHSmfSlVZ-1" value=":Usuario" style="rounded=0;whiteSpace=wrap;html=1;" vertex="1" parent="1">
          <mxGeometry x="70" y="50" width="70" height="30" as="geometry" />
        </mxCell>
        <mxCell id="K4RC7GFQoaODHSmfSlVZ-2" value="" style="endArrow=none;dashed=1;html=1;rounded=0;entryX=0.45;entryY=1;entryDx=0;entryDy=0;entryPerimeter=0;" edge="1" parent="1" target="K4RC7GFQoaODHSmfSlVZ-1">
          <mxGeometry width="50" height="50" relative="1" as="geometry">
            <mxPoint x="100" y="440" as="sourcePoint" />
            <mxPoint x="440" y="210" as="targetPoint" />
          </mxGeometry>
        </mxCell>
        <mxCell id="K4RC7GFQoaODHSmfSlVZ-3" value="Interfaz" style="rounded=0;whiteSpace=wrap;html=1;" vertex="1" parent="1">
          <mxGeometry x="270" y="50" width="70" height="30" as="geometry" />
        </mxCell>
        <mxCell id="K4RC7GFQoaODHSmfSlVZ-4" value="" style="endArrow=none;dashed=1;html=1;rounded=0;entryX=0.5;entryY=1;entryDx=0;entryDy=0;startSize=6;" edge="1" parent="1" source="K4RC7GFQoaODHSmfSlVZ-7" target="K4RC7GFQoaODHSmfSlVZ-3">
          <mxGeometry width="50" height="50" relative="1" as="geometry">
            <mxPoint x="305" y="440" as="sourcePoint" />
            <mxPoint x="274.5" y="90" as="targetPoint" />
          </mxGeometry>
        </mxCell>
        <mxCell id="K4RC7GFQoaODHSmfSlVZ-5" value="" style="endArrow=classic;html=1;rounded=0;" edge="1" parent="1">
          <mxGeometry width="50" height="50" relative="1" as="geometry">
            <mxPoint x="100" y="120" as="sourcePoint" />
            <mxPoint x="300" y="120" as="targetPoint" />
          </mxGeometry>
        </mxCell>
        <mxCell id="K4RC7GFQoaODHSmfSlVZ-6" value="1: autenticacion(usuario,contraseña)" style="edgeLabel;html=1;align=center;verticalAlign=middle;resizable=0;points=[];" vertex="1" connectable="0" parent="K4RC7GFQoaODHSmfSlVZ-5">
          <mxGeometry x="-0.4" y="1" relative="1" as="geometry">
            <mxPoint x="40" y="-9" as="offset" />
          </mxGeometry>
        </mxCell>
        <mxCell id="K4RC7GFQoaODHSmfSlVZ-11" value="" style="endArrow=none;dashed=1;html=1;rounded=0;entryX=0;entryY=0.5;entryDx=0;entryDy=0;startSize=6;" edge="1" parent="1" target="K4RC7GFQoaODHSmfSlVZ-7">
          <mxGeometry width="50" height="50" relative="1" as="geometry">
            <mxPoint x="305" y="440" as="sourcePoint" />
            <mxPoint x="305" y="80" as="targetPoint" />
            <Array as="points" />
          </mxGeometry>
        </mxCell>
        <mxCell id="K4RC7GFQoaODHSmfSlVZ-7" value="" style="rounded=1;whiteSpace=wrap;html=1;rotation=90;" vertex="1" parent="1">
          <mxGeometry x="285" y="130" width="40" height="10" as="geometry" />
        </mxCell>
      </root>
    </mxGraphModel>
  </diagram>
</mxfile>
